<svg width="26" height="25" viewBox="0 0 26 25" fill="none" xmlns="http://www.w3.org/2000/svg">
<path d="M11.3074 8.2148V24.7503C11.3074 24.8863 11.4031 25.0003 11.5152 25.0003H24.8871C24.9984 25.0003 25.0941 24.8863 25.0941 24.7503V8.2148C25.0969 8.15281 25.0769 8.09194 25.0378 8.0437L25.0324 8.0394C25.0324 8.03511 25.0289 8.03433 25.0289 8.03433C25.0119 8.0126 24.9903 7.99496 24.9656 7.98272C24.9409 7.97048 24.9138 7.96396 24.8863 7.96362H11.5144C11.4027 7.96362 11.3074 8.07886 11.3074 8.2148Z" fill="#A2C3CB"/>
<path d="M0 8.21491V24.7505C0 24.8864 0.0957031 25.0005 0.207813 25.0005H13.5785C13.691 25.0005 13.7867 24.8864 13.7867 24.7505V8.21491C13.7893 8.15282 13.769 8.09194 13.7297 8.04381L13.7246 8.03951C13.7246 8.03522 13.7203 8.03444 13.7168 8.03209C13.7005 8.01068 13.6795 7.99337 13.6553 7.98157C13.6312 7.96976 13.6046 7.96379 13.5777 7.96412H0.206641C0.0957031 7.96412 0 8.07897 0 8.21491Z" fill="#A2C3CB"/>
<path d="M0.840186 12.125H5.34878C5.38628 12.125 5.42104 12.1098 5.42104 12.0945V10.1812C5.42104 10.1645 5.38667 10.152 5.34878 10.152H0.840186C0.823062 10.1513 0.805995 10.1543 0.790186 10.1609V10.1625C0.780029 10.1684 0.771826 10.1734 0.771826 10.1809V12.0941C0.771826 12.1098 0.799951 12.125 0.840186 12.125ZM0.840967 15.3437H5.47065C5.50659 15.3437 5.54448 15.3289 5.54448 15.3137V13.4023C5.54448 13.3855 5.50659 13.3723 5.47065 13.3723H0.840576C0.82271 13.3716 0.804939 13.3751 0.788623 13.3824V13.384C0.779639 13.3891 0.770264 13.3937 0.770264 13.4023V15.3137C0.770264 15.3289 0.799951 15.3437 0.840967 15.3437ZM0.862061 18.1211H6.79917C6.84604 18.1211 6.89292 18.1066 6.89292 18.0914V16.1781C6.89292 16.1613 6.84604 16.15 6.79917 16.15H0.862061C0.839386 16.1495 0.816754 16.1522 0.794873 16.1582V16.1602C0.787506 16.1648 0.779645 16.1686 0.771436 16.1715V18.0918C0.771436 18.1059 0.810107 18.1211 0.862061 18.1211ZM0.851904 21.3402H6.06128C6.10229 21.3402 6.14331 21.325 6.14331 21.3105V19.3988C6.14331 19.382 6.10229 19.3684 6.06128 19.3684H0.851904C0.828467 19.3684 0.805029 19.3687 0.792529 19.3785V19.3801L0.771436 19.3902V21.3105C0.771436 21.325 0.805029 21.3402 0.851904 21.3402ZM20.2128 12.3758H24.307C24.3398 12.3758 24.3718 12.3605 24.3718 12.3453V10.4332C24.3718 10.4164 24.3398 10.4039 24.307 10.4039H20.2128C20.1967 10.4038 20.1808 10.407 20.166 10.4133V10.4148L20.1507 10.4258V12.3453C20.1507 12.3605 20.1765 12.3758 20.2128 12.3758ZM19.3476 15.5961H24.2917C24.3312 15.5961 24.3703 15.5809 24.3703 15.5664V13.6527C24.3703 13.6359 24.3304 13.6242 24.2917 13.6242H19.3476C19.3288 13.6236 19.31 13.6264 19.2921 13.6324V13.634C19.282 13.641 19.2707 13.6453 19.2707 13.6453V15.5656C19.2714 15.5809 19.3039 15.5961 19.3476 15.5961ZM17.7812 18.3711H24.2691C24.3203 18.3711 24.3722 18.3559 24.3722 18.3406V16.4289C24.3722 16.4121 24.3203 16.3992 24.2691 16.3992H17.7812C17.7564 16.3986 17.7316 16.4019 17.7078 16.409V16.4105C17.6941 16.416 17.682 16.4203 17.682 16.4289V18.3406C17.6812 18.3559 17.7222 18.3711 17.7812 18.3711ZM18.8398 21.5898H24.2871C24.3304 21.5898 24.375 21.5754 24.375 21.5602V19.6469C24.375 19.6301 24.3312 19.6187 24.2871 19.6187H18.8398C18.8189 19.6182 18.7981 19.6209 18.7781 19.627V19.6289C18.7675 19.6359 18.7558 19.6402 18.7558 19.6473V21.5605C18.7558 21.5754 18.791 21.5898 18.8398 21.5898Z" fill="#5697A2"/>
<path d="M4.60034 1.27852V24.6375C4.60034 24.8301 4.70933 24.991 4.83862 24.991H20.1976C20.3265 24.991 20.4347 24.8301 20.4347 24.6375V1.27773C20.4347 1.17305 20.4101 1.09258 20.3714 1.03633L20.3648 1.02969C20.3648 1.02969 20.3605 1.02305 20.3566 1.01953C20.3199 0.9625 20.2656 0.923828 20.1968 0.923828H4.83823C4.70933 0.923828 4.60034 1.08477 4.60034 1.27773" fill="#C6DCDF"/>
<path d="M10.3856 24.9996H14.7403C14.7739 24.9996 14.8059 24.9777 14.8059 24.9511V21.823C14.8059 21.7964 14.7739 21.7742 14.7403 21.7742H10.386C10.3696 21.7744 10.3538 21.7797 10.3406 21.7894L10.3399 21.791H10.3383C10.3293 21.7992 10.3199 21.8117 10.3199 21.823V24.9511C10.3199 24.9777 10.3516 24.9996 10.3856 24.9996Z" fill="#9A535F"/>
<path d="M10.9293 23.4492H11.6859C11.6859 23.4492 11.6976 23.4418 11.6976 23.4355V22.5797C11.6976 22.573 11.6918 22.5668 11.6918 22.5668H10.9296C10.9296 22.5668 10.923 22.5683 10.9207 22.5719C10.9199 22.5754 10.9179 22.5769 10.9179 22.5769V23.4355C10.9171 23.4422 10.9222 23.4492 10.9293 23.4492Z" fill="#86A7AC"/>
<path d="M5.625 11.4258H19.2719C19.3809 11.4258 19.4898 11.4058 19.4898 11.3871V8.99412C19.4898 8.97302 19.3816 8.9574 19.2719 8.9574H5.62539C5.57344 8.9574 5.50703 8.96169 5.47461 8.96912V8.97185C5.44688 8.97849 5.41992 8.98513 5.41992 8.99451V11.3875C5.41992 11.4058 5.50703 11.4258 5.625 11.4258ZM5.74922 14.9453H19.273C19.3801 14.9453 19.4883 14.9269 19.4883 14.9086V12.5148C19.4883 12.4929 19.3809 12.4781 19.273 12.4781H5.74766C5.69375 12.4781 5.6293 12.4812 5.59766 12.4898V12.4914C5.5707 12.498 5.54375 12.5051 5.54375 12.5148V14.9086C5.54375 14.9269 5.63008 14.9453 5.74805 14.9453M5.74922 18.9754H19.273C19.3801 18.9754 19.4883 18.9566 19.4883 18.9383V16.5449C19.4883 16.5226 19.3809 16.5074 19.273 16.5074H5.74766C5.69375 16.5074 5.6293 16.5074 5.59766 16.5191V16.5211C5.5707 16.5281 5.54375 16.5343 5.54375 16.5449V18.9383C5.54375 18.9566 5.63008 18.9754 5.74805 18.9754" fill="#6CB5C6"/>
<path d="M13.4102 23.4492H14.168C14.168 23.4492 14.1785 23.4418 14.1785 23.4355V22.5797C14.1785 22.573 14.1723 22.5668 14.1723 22.5668H13.4102L13.402 22.5719L13.3984 22.5769V23.4355C13.3984 23.4422 13.4043 23.4492 13.4102 23.4492Z" fill="#86A7AC"/>
<path d="M14.9179 7.61645C14.9179 6.18911 13.9128 5.77895 12.8238 5.54927L12.2468 5.43286C11.3957 5.26489 11.3285 5.01841 11.3285 4.68638C11.3285 4.25708 11.716 4.00044 12.364 4.00044C13.1332 4.00044 13.3304 4.38521 13.4125 4.67583L13.4207 4.70005C13.5175 4.95317 13.7414 5.10435 14.0226 5.10435C14.0949 5.10435 14.1578 5.09263 14.2082 5.08247C14.5089 5.02388 14.7183 4.78286 14.7183 4.50044C14.7183 4.42935 14.705 4.35994 14.6785 4.29224C14.5238 3.79731 14.0949 3.01685 12.8925 2.83911V1.99067C12.8925 1.28208 11.7847 1.28208 11.7847 1.99067V2.84458C10.4968 3.04653 10.0218 3.9231 10.0218 4.68677C10.0218 6.077 10.989 6.46528 11.9355 6.65942L12.5605 6.79263C13.4484 6.97192 13.6042 7.20356 13.6042 7.62349C13.6042 8.13521 13.1718 8.44263 12.4437 8.44263C11.5003 8.44263 11.3082 8.01763 11.1792 7.54028C11.1039 7.27505 10.8656 7.10591 10.571 7.10591C10.5066 7.10591 10.4546 7.11411 10.3933 7.12505L10.3757 7.12739C10.0703 7.20044 9.86597 7.4395 9.86597 7.72349C9.86597 7.77895 9.87573 7.82349 9.88354 7.86099L9.89253 7.90395C10.0292 8.36606 10.3312 9.37583 11.8406 9.60278V10.4907C11.8406 10.845 12.1179 11.0313 12.3933 11.0313C12.6687 11.0313 12.9492 10.845 12.9492 10.4907V9.61763C14.1437 9.46177 14.9179 8.6981 14.9179 7.61645Z" fill="#04A69C"/>
</svg>
